<svg xmlns="http://www.w3.org/2000/svg" width="1200" height="760" viewBox="0 0 1200 760" role="img" aria-labelledby="title desc">
  <title id="title">Legislanópolis — Florianópolis</title>
  <desc id="desc">Composição ilustrativa de documentos legislativos e gráficos, sem representar dados reais.</desc>
  <defs>
    <linearGradient id="bg" x1="0" y1="0" x2="1" y2="1"><stop stop-color="#101d23"/><stop offset="1" stop-color="#1b3036"/></linearGradient>
    <linearGradient id="bar" x1="0" y1="1" x2="0" y2="0"><stop stop-color="#497c79"/><stop offset="1" stop-color="#9bc8ba"/></linearGradient>
    <pattern id="grid" width="48" height="48" patternUnits="userSpaceOnUse"><path d="M48 0H0V48" fill="none" stroke="#9bc8ba" stroke-opacity=".06"/></pattern>
  </defs>
  <rect width="1200" height="760" fill="url(#bg)"/>
  <rect width="1200" height="760" fill="url(#grid)"/>
  <text x="600" y="145" text-anchor="middle" fill="#f0e9d8" font-family="Georgia, serif" font-size="76">Legislanópolis</text>
  <text x="600" y="201" text-anchor="middle" fill="#9bc8ba" font-family="Arial, sans-serif" font-size="19" letter-spacing="5">FLORIANÓPOLIS</text>
  <g fill="none" stroke="#9bc8ba" stroke-width="3">
    <rect x="95" y="310" width="304" height="315" rx="12" stroke-opacity=".25"/>
    <rect x="122" y="285" width="304" height="315" rx="12" stroke-opacity=".5"/>
    <rect x="149" y="260" width="304" height="315" rx="12" fill="#15292e"/>
    <path d="M194 330H405 M194 373H405 M194 416H345 M194 459H385" stroke-linecap="round"/>
    <path d="M194 520H270" stroke="#dec48d" stroke-width="5" stroke-linecap="round"/>
  </g>
  <g transform="translate(575 275)">
    <path d="M0 0V325H480" fill="none" stroke="#9bc8ba" stroke-opacity=".4" stroke-width="2"/>
    <path d="M0 75H480 M0 150H480 M0 225H480" fill="none" stroke="#9bc8ba" stroke-opacity=".12"/>
    <g fill="url(#bar)">
      <rect x="32" y="207" width="48" height="118" rx="4"/>
      <rect x="119" y="135" width="48" height="190" rx="4"/>
      <rect x="206" y="169" width="48" height="156" rx="4"/>
      <rect x="293" y="83" width="48" height="242" rx="4"/>
      <rect x="380" y="33" width="48" height="292" rx="4"/>
    </g>
    <path d="M56 184L143 111L230 145L317 59L404 9" fill="none" stroke="#dec48d" stroke-width="4"/>
    <g fill="#dec48d"><circle cx="56" cy="184" r="6"/><circle cx="143" cy="111" r="6"/><circle cx="230" cy="145" r="6"/><circle cx="317" cy="59" r="6"/><circle cx="404" cy="9" r="6"/></g>
  </g>
  <path d="M76 680H1124" stroke="#9bc8ba" stroke-opacity=".25"/>
</svg>
